<svg xmlns="http://www.w3.org/2000/svg" viewBox="0 0 400 520" width="400" height="520">
  <defs>
    <radialGradient id="mg" cx="38%" cy="32%" r="68%">
      <stop offset="0%" stop-color="#f5f5f5"/>
      <stop offset="45%" stop-color="#d4d4d4"/>
      <stop offset="80%" stop-color="#b0b0b0"/>
      <stop offset="100%" stop-color="#909090"/>
    </radialGradient>
    <radialGradient id="ig" cx="38%" cy="32%" r="68%">
      <stop offset="0%" stop-color="#ececec"/>
      <stop offset="60%" stop-color="#c8c8c8"/>
      <stop offset="100%" stop-color="#a8a8a8"/>
    </radialGradient>
  </defs>
  <!-- CINTA -->
  <rect x="162" y="0" width="30" height="130" fill="#1a3a1a"/>
  <rect x="185" y="0" width="30" height="130" fill="#FF5C1A"/>
  <rect x="208" y="0" width="30" height="130" fill="#1a3a1a"/>
  <!-- textura cinta -->
  <g stroke="rgba(0,0,0,0.1)" stroke-width="0.8">
    <line x1="162" y1="15" x2="238" y2="15"/><line x1="162" y1="25" x2="238" y2="25"/>
    <line x1="162" y1="35" x2="238" y2="35"/><line x1="162" y1="45" x2="238" y2="45"/>
    <line x1="162" y1="55" x2="238" y2="55"/><line x1="162" y1="65" x2="238" y2="65"/>
    <line x1="162" y1="75" x2="238" y2="75"/><line x1="162" y1="85" x2="238" y2="85"/>
    <line x1="162" y1="95" x2="238" y2="95"/><line x1="162" y1="105" x2="238" y2="105"/>
    <line x1="162" y1="115" x2="238" y2="115"/>
  </g>
  <!-- GANCHO -->
  <rect x="172" y="126" width="56" height="28" rx="6" fill="#c0c0c0" stroke="#999" stroke-width="1.2"/>
  <rect x="180" y="132" width="40" height="16" rx="4" fill="none" stroke="#aaa" stroke-width="1"/>
  <!-- MEDALLA cuerpo -->
  <circle cx="200" cy="340" r="172" fill="url(#mg)" stroke="#888" stroke-width="1.5"/>
  <!-- LAUREL exterior - hojas izquierda -->
  <g fill="#b0b0b0" stroke="#999" stroke-width="0.4">
    <ellipse cx="46" cy="265" rx="11" ry="5.5" transform="rotate(-68,46,265)"/>
    <ellipse cx="36" cy="285" rx="11" ry="5.5" transform="rotate(-58,36,285)"/>
    <ellipse cx="30" cy="307" rx="11" ry="5.5" transform="rotate(-48,30,307)"/>
    <ellipse cx="28" cy="330" rx="11" ry="5.5" transform="rotate(-38,28,330)"/>
    <ellipse cx="30" cy="353" rx="11" ry="5.5" transform="rotate(-28,30,353)"/>
    <ellipse cx="37" cy="374" rx="11" ry="5.5" transform="rotate(-18,37,374)"/>
    <ellipse cx="47" cy="393" rx="11" ry="5.5" transform="rotate(-8,47,393)"/>
    <ellipse cx="61" cy="409" rx="11" ry="5.5" transform="rotate(4,61,409)"/>
    <ellipse cx="77" cy="422" rx="11" ry="5.5" transform="rotate(14,77,422)"/>
    <ellipse cx="96" cy="431" rx="11" ry="5.5" transform="rotate(24,96,431)"/>
    <ellipse cx="116" cy="437" rx="11" ry="5.5" transform="rotate(34,116,437)"/>
    <ellipse cx="138" cy="440" rx="11" ry="5.5" transform="rotate(44,138,440)"/>
    <!-- hojas derecha -->
    <ellipse cx="354" cy="265" rx="11" ry="5.5" transform="rotate(68,354,265)"/>
    <ellipse cx="364" cy="285" rx="11" ry="5.5" transform="rotate(58,364,285)"/>
    <ellipse cx="370" cy="307" rx="11" ry="5.5" transform="rotate(48,370,307)"/>
    <ellipse cx="372" cy="330" rx="11" ry="5.5" transform="rotate(38,372,330)"/>
    <ellipse cx="370" cy="353" rx="11" ry="5.5" transform="rotate(28,370,353)"/>
    <ellipse cx="363" cy="374" rx="11" ry="5.5" transform="rotate(18,363,374)"/>
    <ellipse cx="353" cy="393" rx="11" ry="5.5" transform="rotate(8,353,393)"/>
    <ellipse cx="339" cy="409" rx="11" ry="5.5" transform="rotate(-4,339,409)"/>
    <ellipse cx="323" cy="422" rx="11" ry="5.5" transform="rotate(-14,323,422)"/>
    <ellipse cx="304" cy="431" rx="11" ry="5.5" transform="rotate(-24,304,431)"/>
    <ellipse cx="284" cy="437" rx="11" ry="5.5" transform="rotate(-34,284,437)"/>
    <ellipse cx="262" cy="440" rx="11" ry="5.5" transform="rotate(-44,262,440)"/>
    <!-- base -->
    <ellipse cx="200" cy="441" rx="12" ry="6"/>
  </g>
  <!-- anillos -->
  <circle cx="200" cy="340" r="155" fill="none" stroke="#999" stroke-width="2"/>
  <circle cx="200" cy="340" r="138" fill="url(#ig)" stroke="#aaa" stroke-width="1.2"/>
  <circle cx="200" cy="340" r="134" fill="none" stroke="#bbb" stroke-width="0.6"/>
  <!-- brillo -->
  <ellipse cx="155" cy="270" rx="38" ry="22" fill="rgba(255,255,255,0.22)" transform="rotate(-28,155,270)"/>
  <!-- LOGO bePWR -->
  <text x="90" y="334" font-family="'Arial Black', Arial, sans-serif" font-size="52" font-weight="900" fill="#1a1a1a">be</text>
  <text x="193" y="334" font-family="'Arial Black', Arial, sans-serif" font-size="52" font-weight="900" fill="#FF5C1A">PWR</text>
  <text x="325" y="296" font-family="Arial, sans-serif" font-size="16" font-weight="700" fill="#FF5C1A">&#174;</text>
  <!-- TEXTO logro -->
  <text x="200" y="378" text-anchor="middle" font-family="'Arial Black', Arial, sans-serif" font-size="28" font-weight="900" fill="#1a1a1a">1era</text>
  <text x="200" y="412" text-anchor="middle" font-family="'Arial Black', Arial, sans-serif" font-size="28" font-weight="900" fill="#1a1a1a">Valoraci&#243;n</text>
</svg>